<?xml version="1.0" encoding="UTF-8" standalone="no"?>
<!-- Created with Inkscape (http://www.inkscape.org/) -->

<svg
   xmlns:dc="http://purl.org/dc/elements/1.1/"
   xmlns:cc="http://creativecommons.org/ns#"
   xmlns:rdf="http://www.w3.org/1999/02/22-rdf-syntax-ns#"
   xmlns:svg="http://www.w3.org/2000/svg"
   xmlns="http://www.w3.org/2000/svg"
   xmlns:xlink="http://www.w3.org/1999/xlink"
   xmlns:sodipodi="http://sodipodi.sourceforge.net/DTD/sodipodi-0.dtd"
   xmlns:inkscape="http://www.inkscape.org/namespaces/inkscape"
   id="svg9198"
   version="1.1"
   inkscape:version="0.48.2 r9819"
   width="1104"
   height="599"
   sodipodi:docname="Logo_sncf_2011.png">
  <metadata
     id="metadata9204">
    <rdf:RDF>
      <cc:Work
         rdf:about="">
        <dc:format>image/svg+xml</dc:format>
        <dc:type
           rdf:resource="http://purl.org/dc/dcmitype/StillImage" />
        <dc:title></dc:title>
      </cc:Work>
    </rdf:RDF>
  </metadata>
  <defs
     id="defs9202">
    <linearGradient
       id="linearGradient9762">
      <stop
         style="stop-color:#832c71;stop-opacity:1;"
         offset="0"
         id="stop9764" />
      <stop
         style="stop-color:#e41f25;stop-opacity:1;"
         offset="1"
         id="stop9766" />
    </linearGradient>
    <linearGradient
       inkscape:collect="always"
       xlink:href="#linearGradient9762"
       id="linearGradient9768"
       x1="20.664867"
       y1="298.27673"
       x2="1089.2607"
       y2="298.27673"
       gradientUnits="userSpaceOnUse"
       gradientTransform="translate(-1.572671,-1.5726494)" />
  </defs>
  <sodipodi:namedview
     pagecolor="#ffffff"
     bordercolor="#666666"
     borderopacity="1"
     objecttolerance="10"
     gridtolerance="10"
     guidetolerance="10"
     inkscape:pageopacity="0"
     inkscape:pageshadow="2"
     inkscape:window-width="1366"
     inkscape:window-height="706"
     id="namedview9200"
     showgrid="false"
     inkscape:zoom="0.63586956"
     inkscape:cx="589.22957"
     inkscape:cy="338.17509"
     inkscape:window-x="-8"
     inkscape:window-y="-8"
     inkscape:window-maximized="1"
     inkscape:current-layer="svg9198" />
  <path
     style="fill:url(#linearGradient9768);fill-opacity:1;stroke:#000000;stroke-width:0.11120312;stroke-miterlimit:4;stroke-opacity:1;stroke-dasharray:none"
     d="m 26.373329,573.87443 c -1.2285,-1.04998 -3.3552,-3.35269 -4.7261,-5.11711 l -2.4925,-3.20806 0,-267.01552 c 0,-252.012868 0.111,-267.229763 1.946,-270.828581 4.012,-7.868029 4.8979,-8.097942 34.9594,-9.072906 74.613701,-2.419899 161.610701,-0.241627 249.440891,6.245619 245.47517,18.131097 464.66654,67.332292 634.41378,142.404868 54.30012,24.01482 136.0898,68.88451 145.1142,79.60941 5.3073,6.30734 7.3369,-1.05293 -44.1019,159.93659 -43.78721,137.04215 -52.00983,162.01989 -54.24546,164.78078 -1.42255,1.75679 -3.77658,2.65307 -8.51981,3.2439 -3.60478,0.44901 -218.72969,0.84197 -478.05536,0.87323 -444.007241,0.0535 -471.631441,-0.0545 -473.734841,-1.85222 z M 198.74775,502.41622 c 30.02283,-2.21807 50.19657,-6.9281 68.94594,-16.09704 20.47635,-10.0135 34.16294,-23.61267 41.94929,-41.68138 3.20413,-7.43536 3.59677,-9.48823 3.61902,-18.9214 0.0229,-9.69357 -0.27517,-11.19139 -3.55304,-17.85565 -4.58019,-9.31201 -15.96523,-20.96393 -28.89918,-29.57659 -5.379,-3.58187 -27.49744,-15.51362 -49.15209,-26.515 -31.46441,-15.98512 -40.58141,-21.11925 -45.39329,-25.56268 -5.40997,-4.99571 -6.02647,-6.03344 -6.07337,-10.22236 -0.095,-8.51967 5.96918,-15.22296 19.50157,-21.55553 8.61096,-4.02956 19.60676,-6.41604 35.75218,-7.7595 13.25647,-1.10307 18.89929,-0.83356 41.50228,1.98221 12.87577,1.60399 14.94978,1.63535 15.85507,0.23974 1.66073,-2.56023 9.94706,-28.96416 10.22457,-32.57997 0.31298,-4.07819 -0.71824,-4.41224 -21.37237,-6.92334 -20.88215,-2.53882 -60.88074,-1.71749 -78.5317,1.61255 -42.5764,8.0325 -70.0468,23.61167 -81.0175,45.94719 -10.1586,20.6819 -6.6894,38.35012 10.9885,55.96339 10.3555,10.31756 18.9485,15.86471 48.02269,31.00038 48.60344,25.30237 56.28599,30.26861 62.85981,40.63443 3.58546,5.65367 3.86205,8.43604 1.42058,14.28969 -5.13974,12.32289 -19.16038,19.21912 -43.62748,21.45871 -36.388,3.33076 -66.1891,-2.2132 -117.275801,-21.817 -1.4417,-0.55321 -2.9127,1.44402 -6.876,9.3353 -7.4366,14.80724 -13.1763,29.21233 -12.0774,30.31121 1.5338,1.53381 23.2762,9.4622 35.952001,13.10993 18.1666,5.22785 40.8101,9.44733 62.2267,11.5956 8.2816,0.83071 20.07833,0.69165 35.02902,-0.41289 l 0,0 z m 538.77911,-3.16194 c 7.64521,-1.22107 18.90453,-3.29654 25.0207,-4.61215 10.76474,-2.31555 33.19714,-9.10376 35.70384,-10.80425 0.67698,-0.45925 7.77133,-21.52393 15.76522,-46.8104 7.99389,-25.28647 14.86253,-46.30386 15.26366,-46.70531 0.40113,-0.40145 26.38879,-0.90054 57.75036,-1.10909 l 57.02106,-0.37919 5.16062,-16.33027 c 2.83834,-8.98165 5.16062,-17.37514 5.16062,-18.65221 0,-3.47948 -4.21409,-3.73626 -61.31692,-3.73626 -28.04903,0 -50.99823,-0.30785 -50.99823,-0.68412 0,-0.76469 17.82874,-56.43639 18.189,-56.79666 0.1259,-0.12588 31.05336,-0.58398 68.7277,-1.01799 l 68.49881,-0.78909 5.1385,-16.85167 c 2.8262,-9.26841 5.1386,-18.1229 5.1386,-19.67663 0,-2.73928 -0.2783,-2.84664 -9.17425,-3.53914 -12.02908,-0.93641 -129.51223,-0.93401 -159.60791,0.003 l -23.46471,0.73076 -11.67574,35.13225 c -6.42164,19.32265 -17.99451,54.89852 -25.71746,79.0574 -7.72296,24.15888 -17.27565,54.02611 -21.22821,66.37161 l -7.18648,22.4464 -5.80638,1.15924 c -24.73835,4.939 -63.54821,4.21755 -85.80424,-1.59505 -27.76261,-7.25074 -45.76047,-22.56918 -53.45789,-45.49939 -4.25389,-12.67215 -4.14293,-32.63322 0.26003,-46.77492 8.90063,-28.58761 35.14177,-52.75835 68.69791,-63.27771 19.85965,-6.22572 25.04741,-6.78212 62.99513,-6.75644 l 35.19435,0.0238 6.33675,-19.87682 c 3.48523,-10.93226 5.91289,-20.29979 5.39479,-20.81671 -3.79547,-3.78704 -68.48345,-5.03778 -90.89852,-1.75754 -42.11273,6.16284 -76.02756,21.33446 -103.85655,46.45969 -5.27077,4.75868 -9.73193,8.50344 -9.91368,8.32168 -0.18175,-0.18175 2.62991,-10.29714 6.24814,-22.47865 8.62581,-29.04061 8.79313,-29.98501 5.47003,-30.87478 -3.49991,-0.93711 -38.16177,-0.79517 -43.742,0.17913 l -4.44812,0.77663 -4.78534,13.89369 c -2.63193,7.64154 -14.76408,44.87478 -26.96033,82.74054 -12.19624,37.86576 -22.32322,68.99506 -22.50438,69.17623 -0.18118,0.18116 -3.78457,-7.78087 -8.00755,-17.6934 -14.39482,-33.78872 -31.14823,-65.50003 -50.94022,-96.42098 -9.60603,-15.00748 -28.31761,-41.27937 -34.33624,-48.20964 l -3.72082,-4.28441 -21.16338,-0.59908 c -11.63985,-0.32949 -23.90951,-0.25597 -27.2659,0.16338 l -6.10253,0.76247 -10.7752,32.47781 c -5.92636,17.8628 -14.81738,45.4886 -19.75782,61.39064 -4.94044,15.90205 -9.20631,29.5685 -9.47974,30.3699 -0.27341,0.8014 3.66404,5.55534 8.74991,10.56429 10.44032,10.28246 15.048,16.57764 19.79227,27.04091 2.75051,6.06611 3.67422,7.17398 5.73688,6.88063 2.19957,-0.31281 4.27405,-5.81875 19.69501,-52.27324 9.48006,-28.55798 17.52492,-52.19908 17.87747,-52.53577 0.35253,-0.3367 4.16374,4.76381 8.46933,11.33447 29.82272,45.51162 54.52404,97.1665 72.59185,151.80253 l 6.90111,20.86855 29.54588,-0.29598 29.54586,-0.29599 13.55463,-41.97829 c 7.45503,-23.08807 14.04336,-43.07363 14.64071,-44.41235 0.93639,-2.09853 1.50237,-1.09894 4.10588,7.25144 10.58285,33.9429 34.80188,57.74208 73.54687,72.27191 10.04056,3.76533 29.29405,8.36613 40.29403,9.62864 14.76056,1.69413 60.0581,0.45396 75.91323,-2.07838 l 0,0 z"
     id="path9752"
     inkscape:connector-curvature="0" />
</svg>
