<?xml version="1.0" encoding="utf-8"?>
<!-- Generator: Adobe Illustrator 17.1.0, SVG Export Plug-In . SVG Version: 6.00 Build 0)  -->
<!DOCTYPE svg PUBLIC "-//W3C//DTD SVG 1.1//EN" "http://www.w3.org/Graphics/SVG/1.1/DTD/svg11.dtd">
<svg version="1.1" id="Calque_1" xmlns="http://www.w3.org/2000/svg" xmlns:xlink="http://www.w3.org/1999/xlink" x="0px" y="0px"
	 viewBox="0 0 1190.6 841.9" enable-background="new 0 0 1190.6 841.9" xml:space="preserve">
<path fill="#969696" d="M594.5,53.8c202.3,0,367.1,164.8,367.1,367.1S796.8,788,594.5,788S227.4,623.3,227.4,420.9
	C229,218.6,392.1,53.8,594.5,53.8 M594.5,13.1c-225.2,0-407.9,182.7-407.9,407.9s182.7,407.9,407.9,407.9s407.9-182.7,407.9-407.9
	C1004,195.8,821.2,13.1,594.5,13.1L594.5,13.1z"/>
<path fill="#969696" d="M568.4,262.7c0-9.8,3.3-16.3,9.8-22.8c6.5-6.5,14.7-9.8,24.5-9.8c9.8,0,17.9,3.3,24.5,9.8
	c6.5,6.5,9.8,14.7,9.8,22.8c0,9.8-3.3,17.9-9.8,24.5c-6.5,6.5-14.7,9.8-24.5,9.8c-9.8,0-17.9-3.3-24.5-9.8
	C571.6,280.6,568.4,272.5,568.4,262.7z M579.8,370.4h45.7v274.1h-45.7V370.4z"/>
</svg>
