<?xml version="1.0" encoding="utf-8"?>
<!-- Generator: Adobe Illustrator 17.1.0, SVG Export Plug-In . SVG Version: 6.00 Build 0)  -->
<!DOCTYPE svg PUBLIC "-//W3C//DTD SVG 1.1//EN" "http://www.w3.org/Graphics/SVG/1.1/DTD/svg11.dtd">
<svg version="1.1" id="Calque_1" xmlns="http://www.w3.org/2000/svg" xmlns:xlink="http://www.w3.org/1999/xlink" x="0px" y="0px"
	 viewBox="0 0 1190.6 841.9" enable-background="new 0 0 1190.6 841.9" xml:space="preserve">
<path id="profil" fill="#969696" d="M594.5,11.4c-225.2,0-409.5,184.4-409.5,409.5c0,226.8,182.7,409.5,409.5,409.5
	S1004,647.7,1004,420.9C1004,195.8,821.2,11.4,594.5,11.4z M599.4,799.5c-138.7,0-238.2-84.8-239.8-86.5
	c22.8-13.1,114.2-31,137.1-44.1c24.5-14.7,16.3-97.9,16.3-97.9l-16.3-14.7c0,0-3.3-37.5-11.4-50.6c-13.1-22.8-32.6-81.6-32.6-81.6
	s-16.3-11.4-16.3-32.6c0-21.2,16.3-32.6,16.3-32.6s-13.1-57.1-13.1-97.9c0-91.4,68.5-130.5,163.2-130.5s146.8,45.7,146.8,130.5
	c0,39.2-6.5,97.9-6.5,97.9s16.3,11.4,16.3,32.6c0,21.2-16.3,32.6-16.3,32.6s-16.3,50.6-32.6,81.6c-6.5,13.1-11.4,50.6-11.4,50.6
	L682.6,571c0,0-8.2,83.2,16.3,97.9c21.2,13.1,110.9,31,135.4,44.1C837.6,713,738,799.5,599.4,799.5z"/>
</svg>
