<?xml version="1.0" encoding="utf-8"?>
<!-- Generator: Adobe Illustrator 17.1.0, SVG Export Plug-In . SVG Version: 6.00 Build 0)  -->
<!DOCTYPE svg PUBLIC "-//W3C//DTD SVG 1.1//EN" "http://www.w3.org/Graphics/SVG/1.1/DTD/svg11.dtd">
<svg version="1.1" id="Calque_1" xmlns="http://www.w3.org/2000/svg" xmlns:xlink="http://www.w3.org/1999/xlink" x="0px" y="0px"
	 viewBox="0 0 1190.6 841.9" enable-background="new 0 0 1190.6 841.9" xml:space="preserve">
<path fill="#969696" d="M594.5,53.8c202.3,0,367.1,164.8,367.1,367.1S796.8,788,594.5,788S227.4,623.3,227.4,420.9
	C229,218.6,392.1,53.8,594.5,53.8 M594.5,13.1c-225.2,0-407.9,182.7-407.9,407.9s182.7,407.9,407.9,407.9s407.9-182.7,407.9-407.9
	C1004,195.8,821.2,13.1,594.5,13.1L594.5,13.1z"/>
<path fill="#969696" d="M571.2,500.3c0-11.2,0.7-20.4,2.1-27.6c1.4-7.2,3.7-13.7,6.9-19.5c3.2-5.8,7.4-11.5,12.6-17.1
	c5.2-5.6,11.8-12.4,19.8-20.4c6-6.4,12.1-12.7,18.3-18.9c6.2-6.2,11.8-12.7,16.8-19.5c5-6.8,9.1-14,12.3-21.6
	c3.2-7.6,4.8-16.2,4.8-25.8c0-19.2-5.6-34.9-16.8-47.1c-11.2-12.2-26.8-18.3-46.8-18.3c-20.4,0-36.9,6-49.5,18
	c-12.6,12-20.5,27.8-23.7,47.4l-54-6c2.8-16.4,7.9-31,15.3-43.8c7.4-12.8,16.7-23.5,27.9-32.1c11.2-8.6,24-15.2,38.4-19.8
	c14.4-4.6,29.8-6.9,46.2-6.9c16.4,0,31.7,2.3,45.9,6.9c14.2,4.6,26.6,11.4,37.2,20.4c10.6,9,18.9,20.2,24.9,33.6
	c6,13.4,9,28.7,9,45.9c0,13.2-1.9,25.1-5.7,35.7c-3.8,10.6-8.8,20.4-15,29.4c-6.2,9-13.5,17.6-21.9,25.8c-8.4,8.2-17,16.5-25.8,24.9
	c-6.4,6-11.5,11.2-15.3,15.6c-3.8,4.4-6.7,9-8.7,13.8c-2,4.8-3.3,10.1-3.9,15.9c-0.6,5.8-0.9,12.9-0.9,21.3v27.6h-50.4V500.3z
	 M596.4,588.5c10,0,18.5,3.5,25.5,10.5c7,7,10.5,15.5,10.5,25.5c0,10-3.7,18.5-11.1,25.5c-7.4,7-15.7,10.5-24.9,10.5
	c-9.2,0-17.5-3.5-24.9-10.5c-7.4-7-11.1-15.5-11.1-25.5c0-10,3.5-18.5,10.5-25.5C577.9,592,586.4,588.5,596.4,588.5z"/>
</svg>
