<?xml version="1.0" encoding="utf-8"?>
<!-- Generator: Adobe Illustrator 17.1.0, SVG Export Plug-In . SVG Version: 6.00 Build 0)  -->
<!DOCTYPE svg PUBLIC "-//W3C//DTD SVG 1.1//EN" "http://www.w3.org/Graphics/SVG/1.1/DTD/svg11.dtd">
<svg version="1.1" id="Calque_1" xmlns="http://www.w3.org/2000/svg" xmlns:xlink="http://www.w3.org/1999/xlink" x="0px" y="0px"
	 viewBox="0 0 1190.6 841.9" enable-background="new 0 0 1190.6 841.9" xml:space="preserve">
<path fill="#969696" d="M594.5,53.8c202.3,0,367.1,164.8,367.1,367.1S796.8,788,594.5,788S227.4,623.3,227.4,420.9
	C229,218.6,392.1,53.8,594.5,53.8 M594.5,13.1c-225.2,0-407.9,182.7-407.9,407.9s182.7,407.9,407.9,407.9s407.9-182.7,407.9-407.9
	C1004,195.8,821.2,13.1,594.5,13.1L594.5,13.1z"/>
<path fill="#969696" d="M612.4,171.3c3.3,0,8.2,6.5,9.8,11.4l0,0l0,0l9.8,45.7l3.3,14.7l14.7,4.9c9.8,3.3,17.9,6.5,27.7,11.4
	l14.7,8.2l13.1-8.2l39.2-24.5l0,0l0,0c3.3-1.6,6.5-3.3,9.8-3.3c1.6,0,3.3,0,4.9,1.6l24.5,24.5c1.6,1.6,0,8.2-4.9,14.7l-24.5,40.8
	l-4.9,13.1l6.5,13.1c4.9,9.8,8.2,17.9,11.4,27.7l4.9,14.7l16.3,3.3l44.1,9.8l0,0l0,0c6.5,1.6,11.4,6.5,11.4,9.8v35.9
	c0,1.6-4.9,6.5-13.1,8.2l-45.7,11.4l-14.7,3.3l-4.9,14.7c-3.3,8.2-6.5,17.9-11.4,26.1l-6.5,13.1l8.2,13.1l24.5,40.8
	c4.9,6.5,4.9,13.1,3.3,14.7l-24.5,24.5c-1.6,1.6-3.3,1.6-4.9,1.6c-3.3,0-6.5-1.6-9.8-3.3l0,0l0,0l-39.2-24.5l-13.1-8.2l-14.7,8.2
	c-8.2,4.9-17.9,8.2-27.7,11.4l-14.7,4.9l-3.3,16.3l-9.8,45.7l0,0l0,0c-1.6,6.5-6.5,11.4-9.8,11.4h-34.3c-1.6,0-6.5-4.9-8.2-13.1
	l-11.4-44.1l-3.3-14.7l-14.7-4.9c-9.8-3.3-19.6-6.5-29.4-13.1l-14.7-8.2l-13.1,8.2l-40.8,26.1l0,0l0,0c-3.3,1.6-6.5,3.3-9.8,3.3
	c-1.6,0-3.3,0-4.9-1.6l-24.5-26.1c-1.6-1.6,0-8.2,4.9-14.7l26.1-42.4l8.2-13.1l-6.5-13.1c-4.9-8.2-6.5-16.3-9.8-24.5l-4.9-14.7
	l-17.9-4.9l-45.7-11.4c-8.2-1.6-13.1-6.5-13.1-8.2v-34.3c0-3.3,6.5-8.2,11.4-9.8l0,0l0,0l44.1-9.8l16.3-3.3l4.9-14.7
	c3.3-8.2,6.5-16.3,9.8-26.1l6.5-13.1l-8.2-13.1l-26.1-42.4c-4.9-6.5-4.9-13.1-3.3-14.7l24.5-24.5c1.6-1.6,3.3-1.6,4.9-1.6
	c3.3,0,6.5,1.6,9.8,3.3l0,0l0,0l40.8,26.1l13.1,8.2l14.7-8.2c9.8-4.9,19.6-9.8,29.4-13.1l14.7-4.9l3.3-14.7l11.4-45.7
	c1.6-8.2,6.5-13.1,8.2-13.1h37.5 M612.4,143.6h-34.3c-19.6,0-31,17.9-34.3,34.3l-11.4,44.1c-11.4,3.3-22.8,8.2-34.3,14.7l-40.8-24.5
	c-6.5-4.9-16.3-8.2-26.1-8.2c-8.2,0-17.9,3.3-24.5,9.8l-24.5,24.5c-13.1,13.1-9.8,34.3,0,48.9l26.1,42.4
	c-4.9,9.8-8.2,19.6-11.4,29.4l-44.1,9.8c-16.3,3.3-34.3,17.9-34.3,35.9v35.9c0,19.6,17.9,31,34.3,34.3l45.7,11.4
	c3.3,9.8,6.5,17.9,11.4,27.7L384,556.4c-9.8,14.7-13.1,35.9,0,48.9l24.5,24.5c6.5,6.5,16.3,9.8,24.5,9.8c9.8,0,17.9-3.3,26.1-8.2
	l40.8-26.1c11.4,4.9,22.8,9.8,34.3,14.7l11.4,44.1c3.3,16.3,16.3,34.3,34.3,34.3H614c19.6,0,34.3-17.9,35.9-34.3l9.8-45.7
	c11.4-3.3,21.2-8.2,31-13.1l39.2,24.5c6.5,4.9,16.3,8.2,26.1,8.2c8.2,0,17.9-3.3,24.5-9.8l24.5-24.5c13.1-13.1,9.8-34.3,0-48.9
	l-24.5-40.8c4.9-9.8,9.8-19.6,13.1-29.4l45.7-11.4c16.3-3.3,34.3-16.3,34.3-34.3v-34.3c0-19.6-17.9-34.3-34.3-35.9l-45.7-9.8
	c-3.3-11.4-8.2-21.2-13.1-32.6l24.5-40.8c9.8-14.7,13.1-35.9,0-48.9l-24.5-24.5c-6.5-6.5-16.3-9.8-24.5-9.8
	c-9.8,0-17.9,3.3-26.1,8.2l-39.2,24.5c-9.8-4.9-21.2-9.8-31-13.1l-11.4-44.1C646.7,161.5,632,143.6,612.4,143.6L612.4,143.6z"/>
<path fill="#969696" d="M596.1,337.7c45.7,0,83.2,37.5,83.2,83.2s-37.5,84.8-83.2,84.8s-83.2-37.5-83.2-83.2
	S548.8,337.7,596.1,337.7 M596.1,310c-62,0-110.9,50.6-110.9,110.9c0,62,50.6,110.9,110.9,110.9c62,0,110.9-50.6,110.9-110.9
	S656.5,310,596.1,310L596.1,310z"/>
</svg>
